<?xml version="1.0" encoding="iso-8859-1"?>
<!-- Generator: Adobe Illustrator 15.1.0, SVG Export Plug-In . SVG Version: 6.00 Build 0)  -->
<!DOCTYPE svg PUBLIC "-//W3C//DTD SVG 1.1//EN" "http://www.w3.org/Graphics/SVG/1.1/DTD/svg11.dtd">
<svg version="1.1" id="_x31_1" xmlns="http://www.w3.org/2000/svg" xmlns:xlink="http://www.w3.org/1999/xlink" x="0px" y="0px"
	 width="512px" height="512px" viewBox="0 0 512 512" style="enable-background:new 0 0 512 512;" xml:space="preserve">
<g>
	<path style="fill:#EF401D;" d="M477.08,189.014c-80.363-13.786-124.709-14.196-177.112,20.248
		c11.385-10.097,22.815-73.022,2.131-116.882c-20.684-43.86-45.604-89.218-48.645-92.09c-3.042-2.874-13.282,15.903-33.715,43.402
		c-55.497,63.013-48.234,131.546-31.114,158.141C122.57,143.468,38.718,159.82,35.748,161.58c-2.958,1.762,2.426,8.587,9.481,38.482
		c7.051,29.898,40.68,92.285,104.098,103.427C94.707,307.17,43.4,360.345,37.561,365.146c-5.836,4.801,21.369,3.356,61.117,18.525
		c39.75,15.171,83.143-11.923,83.143-11.923s-9.405,8.925-13.562,33.447c16.414-2.369,45.63-1.302,59.12-15.89
		c15.969,20.885,67.116,29.137,67.116,29.137c1.295-3.445-4.305-27.518-16.86-40.786c55.447,50.63,163.116,21.479,165.88,20.503
		c2.763-0.97,1.003-3.938-21.079-24.244c-22.073-20.313-39.703-64.649-96.577-63.639
		C387.058,312.049,452.257,227.139,477.08,189.014z"/>
	<path style="fill:#EF401D;" d="M217.468,363.903c0,0,4.029,88.093-26.748,141.335c0,0,11.666,12.506,24.378,3.502
		c12.706-9.004,19.742-92.583,21.218-143.592L217.468,363.903z"/>
</g>
</svg>
